<svg width="512" height="691" viewBox="0 0 512 691" fill="none" xmlns="http://www.w3.org/2000/svg">
<path fill-rule="evenodd" clip-rule="evenodd" d="M363.688 386.283C359.774 384.887 356.002 383.275 352.565 380.904C342.657 373.529 336.197 362.429 330.092 351.913C321.494 336.617 315.368 320.319 311.134 303.317C309.315 296.012 308.697 287.542 304.563 281.066C295.192 267.505 267.713 269.262 253.121 271.642C243.35 273.372 241.33 284.308 239.111 292.4C237.263 299.124 236.053 305.924 235.038 312.815C232.622 314.403 229.895 315.693 227.295 316.817C198.965 325.505 193.985 341.612 183.164 366.493C164.888 402.656 115.294 416.816 107.803 459.614C102.977 487.869 116.702 514.451 130.853 537.941C144.031 563.598 162.43 575.912 191.729 569.851C219.211 563.685 245.622 553.372 272.62 545.402C285.697 542.187 298.752 533.824 312.507 536.739C340.85 543.105 369.97 546.098 399.016 545.272C439.798 546.921 439.792 507.776 435.606 477.462C432.674 430.286 408.881 399.994 363.688 386.283V386.283Z" fill="white"/>
<path fill-rule="evenodd" clip-rule="evenodd" d="M366.415 454.546C369.823 456.8 372.689 460.217 374.99 463.813C365.384 462.814 355.795 461.662 346.228 460.35C347.48 459.55 348.745 458.767 350.038 458.028C354.755 455.369 361.147 451.063 366.415 454.546ZM206.827 482.943C205.067 482.254 204.386 479.57 203.7 478.031C201.549 473.207 199.587 468.301 197.544 463.429C205.298 461.219 212.839 458.766 220.871 457.588C229.508 456.322 238.272 456.016 246.989 456.3C264.645 456.876 282.137 459.762 299.495 462.856C316.833 465.947 334.17 468.917 351.63 471.247C368.735 473.53 385.895 475.201 403.087 476.668C406.427 476.953 411.996 478.154 414.682 475.526C416.809 473.444 416.878 469.604 414.217 467.911C412.559 466.856 410.157 466.841 408.263 466.597C405.878 466.29 403.484 466.086 401.084 465.927C400.107 465.862 399.129 465.803 398.151 465.743C406.001 462.783 414.2 461.169 422.71 461.619C423.191 464.543 425.36 467.551 426.546 469.963C428.619 474.173 430.234 478.434 431.294 483.012C433.511 492.58 433.607 502.511 432.981 512.27C432.406 520.407 431.171 529.408 424.789 535.171C419.957 539.534 413.14 541.149 406.815 541.657C399.464 542.248 391.999 541.617 384.71 540.632C374.486 539.25 364.215 537.421 354.192 534.971C334.78 530.226 316.173 522.675 299.006 512.437C290.634 507.445 282.646 501.829 274.159 497.026C265.511 492.132 256.31 488.336 246.648 485.978C235.835 483.34 224.531 482.214 213.418 482.865C211.489 482.977 208.703 483.677 206.827 482.943ZM194.296 478.044C195.433 481.732 196.302 485.942 198.727 489.04C201.13 492.111 204.754 493.195 208.508 493.468C213.035 493.796 217.615 493.586 222.152 493.754C231.457 494.1 240.634 495.611 249.529 498.384C257.818 500.968 265.513 504.999 272.925 509.47C279.78 513.605 286.433 518.045 293.29 522.167C291.465 523.004 289.661 523.909 287.846 524.697C284.042 526.35 280.213 527.944 276.368 529.498C268.785 532.564 261.17 535.554 253.477 538.333C237.964 543.935 222.197 548.83 206.24 552.999C198.629 554.988 190.91 557.311 183.004 557.641C175.992 557.934 169.498 555.953 163.844 551.784C152.116 543.136 142.785 530.655 135.242 518.344C130.76 511.029 126.849 503.344 123.615 495.398C121.979 491.379 120.495 487.299 119.16 483.171C118.533 481.233 117.939 479.284 117.377 477.326C117.129 476.465 116.892 475.601 116.657 474.737C128.65 471.077 140.785 467.773 153.205 465.939C159.837 464.959 166.556 464.463 173.26 464.535C176.587 464.571 179.913 464.751 183.223 465.094C185.005 465.279 186.779 465.517 188.546 465.812C189.276 465.933 190.026 466.113 190.779 466.245C191.929 470.185 193.088 474.122 194.296 478.044ZM442.203 462.379C442.849 461.071 443.122 459.785 443.354 458.361C443.53 457.275 443.999 455.747 443.588 454.337C443.129 452.758 441.876 451.346 440.977 449.999C439.984 448.51 438.992 447.021 438.001 445.531C436.02 442.551 434.042 439.568 432.068 436.584C424.007 424.395 416 412.171 407.98 399.955C400.864 389.114 393.867 378.175 386.534 367.48C380.263 358.334 373.428 349.339 364.845 342.227C353.992 333.233 341.07 328.997 327.572 325.691C326.097 324.161 324.128 323.325 322.024 323.494C319.05 320.121 316.686 317.765 315.615 313.476C315.102 311.421 315.262 305.649 313.262 304.433C310.885 302.989 309.644 304.9 308.989 307.055C306.796 314.262 309.313 323.952 315.104 331.172C312.664 339.606 309.429 351.592 303.658 358.349C297.478 365.584 288.931 367.836 279.71 367.984C262.124 368.267 244.557 361.731 231.144 350.403C227.066 346.96 223.28 343.115 219.854 339.025C217.285 335.957 214.245 331.222 212.235 327.643C212.235 326.248 210.589 324.789 227.352 323.663C244.115 322.536 245.386 299.58 245.759 296.456C246.062 293.919 247.35 289.982 245.562 287.913C244.804 287.035 243.247 286.893 242.285 287.49C240.472 288.616 239.876 291.497 239.306 293.452C238.507 296.192 235.896 313.198 230.949 315.167C228.633 316.089 225.976 316.106 223.526 316.276C220.501 316.487 217.469 316.642 214.455 316.994C213.344 317.124 212.131 317.484 211.035 317.494C210.321 317.501 209.585 317.154 208.896 316.911C206.568 316.088 204.243 316.705 201.845 317.027C180.646 319.877 158.818 326.38 140.735 338.081C124.798 348.394 113.569 363.226 106.16 380.567C98.6004 398.264 94.2673 417.402 90.636 436.241C89.4196 442.554 88.3573 448.895 87.4446 455.259C86.5626 461.407 85.4592 467.693 85.1951 473.904C85.0906 476.362 85.6778 478.645 86.5815 480.89C87.5992 483.416 90.0046 484.412 92.3117 485.592C97.3763 488.183 102.719 490.192 108.223 491.615C111.586 497.733 114.416 504.09 116.69 510.688C115.847 512.36 115.829 514.856 115.667 516.481C115.264 520.528 115.092 524.595 115.056 528.66C114.984 536.807 115.473 544.947 115.857 553.081C116.247 561.332 117.541 593.884 117.752 597.86C117.916 600.948 117.695 605.267 119.322 608.009C121.822 612.223 127.991 612.081 130.848 608.664C201.845 623.928 335.299 619.331 389.047 611.651C396.04 610.652 393.845 611.76 395.623 609.993C396.958 608.666 398.093 606.394 398.462 604.568C398.956 602.13 398.16 599.924 396.764 597.952C395.297 595.878 395.03 592.52 394.485 590.054C393.196 584.226 392.556 558.628 391.954 555.791C391.766 554.907 391.585 553.973 391.366 553.038C401.225 553.972 411.498 553.972 420.877 550.674C426.196 548.804 431.157 545.867 434.975 541.672C439.598 536.594 442.17 530.2 443.493 523.527C445.2 514.922 445.562 506.008 445.227 497.26C444.761 486.922 443.047 476.438 438.791 466.946C440.191 465.645 441.365 464.076 442.203 462.379Z" fill="black"/>
<path fill-rule="evenodd" clip-rule="evenodd" d="M346.684 159.422C331.823 138.37 294.477 135.998 270.874 136.132C224.262 135.743 214.502 189.326 212.067 226.874C207.096 227.719 202.261 229.453 198.98 233.36C194.985 238.119 193.605 246.286 197.351 251.607C199.838 255.141 203.766 256.322 207.875 256.518C221.482 255.22 224.272 267.35 230.974 276.445C248.171 299.679 277.962 307.216 305.286 307.332C314.567 307.579 325.747 308.275 331.691 299.542C350.464 267 350.873 223.84 352.03 186.962C352.189 177.52 352.149 167.525 346.684 159.422V159.422Z" fill="white"/>
<path fill-rule="evenodd" clip-rule="evenodd" d="M378.759 177.683C378.948 178.04 379.087 178.435 379.164 178.864C379.409 180.228 378.906 181.27 378.247 182.283C378.333 182.989 378.382 183.673 378.419 184.275C378.629 187.653 377.855 192.285 374.876 193.664C374.83 193.72 374.782 193.776 374.733 193.831C374.503 194.205 374.153 194.529 373.692 194.765C373.577 194.845 373.461 194.92 373.344 194.985C373.291 195.031 373.232 195.068 373.177 195.111C373.24 195.046 373.3 194.978 373.361 194.911C371.714 195.569 370.122 195.704 368.423 195.505C367.373 195.884 366.321 196.168 365.432 196.387C362.66 197.072 359.085 197.62 356.383 196.453C355.596 196.113 354.943 195.662 354.452 195.126C354.493 197.217 354.554 199.308 354.644 201.4C354.829 206.687 354.82 211.97 354.78 217.261C354.735 223.216 354.568 229.175 354.248 235.125C354.099 238.113 353.86 241.097 353.54 244.072C353.27 246.97 352.954 249.864 352.589 252.749C351.728 258.681 350.309 264.658 348.578 270.391C347.825 272.879 347 275.399 346.063 277.86C345.666 278.992 345.247 280.109 344.792 281.218C342.39 287.029 339.397 292.636 335.354 297.477C333.146 300.118 330.708 302.494 327.985 304.491C325.799 306.194 323.433 307.637 320.833 308.773C315.244 311.216 309.006 311.766 302.962 311.676C300.657 311.645 298.213 311.237 295.927 310.856L295.787 310.833C294.002 310.54 292.195 310.147 290.406 309.688C288.819 309.318 287.251 308.89 285.705 308.39C283.843 307.898 282.059 307.191 280.359 306.276L277.349 305.144C276.091 304.671 274.87 304.107 273.684 303.463L270.412 301.935C269.056 301.281 267.735 300.565 266.446 299.776C266.311 299.704 266.158 299.582 266.099 299.447C265.96 299.369 265.82 299.294 265.679 299.218C265.484 299.113 265.288 299.007 265.094 298.897C265.04 298.87 265.08 298.712 265.153 298.559C265.094 298.437 265.103 298.302 265.265 298.18C265.387 298.085 265.581 298.112 265.784 298.176C265.766 298.162 265.752 298.149 265.739 298.135C265.513 298.013 265.292 297.896 265.071 297.774C264.846 297.653 264.81 297.337 265.022 297.17C265.08 297.125 265.148 297.103 265.216 297.098C265.213 297.098 265.211 297.097 265.209 297.096C265.207 297.095 265.204 297.094 265.202 297.094C265.162 297.067 265.193 296.941 265.252 296.801C265.139 296.657 265.103 296.481 265.301 296.327C265.573 296.114 266.183 296.464 266.467 296.627C266.489 296.639 266.509 296.651 266.527 296.661C266.704 296.759 266.883 296.854 267.061 296.949C267.169 297.006 267.277 297.063 267.384 297.121C267.402 297.08 267.438 297.044 267.496 297.008C267.077 296.787 266.662 296.562 266.248 296.337C265.991 296.201 265.657 295.917 265.995 295.651C266.266 295.435 266.964 295.805 267.298 295.994C267.339 295.962 267.384 295.949 267.438 295.94C267.38 295.907 267.32 295.875 267.26 295.843C267.172 295.796 267.082 295.748 266.996 295.696C266.59 295.471 266.865 294.768 267.284 295.002C267.309 295.018 267.334 295.033 267.359 295.047C267.384 295.062 267.408 295.077 267.433 295.092C267.72 295.067 268.117 295.289 268.322 295.404L268.353 295.421C269.763 296.309 271.233 297.085 272.756 297.752C273.784 298.239 274.816 298.721 275.852 299.19C276.871 299.695 277.921 300.132 278.998 300.501C281.707 301.556 284.443 302.539 287.206 303.449C291.077 304.509 295.084 305.361 299.104 305.694C299.627 305.735 300.15 305.771 300.673 305.789C301.243 305.784 301.814 305.781 302.384 305.777C302.958 305.774 303.531 305.771 304.102 305.766C306.125 305.557 308.148 305.351 310.167 305.146L310.764 305.086C311.539 304.977 312.296 304.842 313.044 304.684C313.437 304.59 313.829 304.491 314.216 304.378C314.351 304.36 314.487 304.333 314.622 304.31C315.573 304.058 316.506 303.756 317.439 303.404C318.025 303.165 318.606 302.913 319.183 302.647C321.09 301.759 322.964 300.587 324.731 299.244C325.836 298.144 326.94 297.045 328.045 295.945C329.153 294.843 330.262 293.74 331.37 292.636L333.394 289.877C336.008 286.141 338.077 281.976 339.794 277.725L342.525 269.855C342.809 268.908 343.079 267.962 343.336 267.011C343.855 264.883 344.373 262.756 344.891 260.633C345.062 259.853 345.229 259.077 345.391 258.302C346.388 253.475 346.937 248.575 347.411 243.675C348.276 234.76 348.51 225.817 348.573 216.865C348.614 211.514 348.569 206.164 348.461 200.818C348.398 197.719 348.353 194.621 348.308 191.522L348.308 191.515C348.249 188.224 348.186 184.929 348.1 181.639C348.096 181.567 348.123 181.503 348.159 181.449C348.15 181.062 348.145 180.674 348.141 180.282C348.136 180.025 348.235 179.912 348.38 179.89C348.353 177.541 348.335 175.197 348.33 172.854C348.33 172.7 348.402 172.601 348.497 172.543V171.948C348.105 170.316 347.573 168.716 346.883 167.192C346.649 166.642 346.388 166.106 346.099 165.583C345.743 164.799 345.279 164.086 344.711 163.433C344.238 162.635 343.656 161.927 342.98 161.296C342.871 161.217 342.761 161.139 342.651 161.06C342.484 160.94 342.317 160.821 342.151 160.701C341.921 160.58 341.583 160.368 341.286 160.124C341.017 159.96 340.75 159.794 340.483 159.629C340.216 159.463 339.949 159.297 339.681 159.133C339.37 158.97 339.573 158.565 339.794 158.457V158.443C339.744 158.421 339.69 158.393 339.631 158.344C338.982 157.731 338.306 157.154 337.603 156.613C337.477 156.663 337.328 156.645 337.216 156.55C336.801 156.162 336.377 155.788 335.945 155.428C334.976 154.792 333.962 154.21 332.902 153.697C331.203 152.894 329.464 152.205 327.679 151.619C327.332 151.505 326.983 151.401 326.635 151.299L326.521 151.265C326.311 151.255 326.1 151.244 325.89 151.234C325.552 151.217 325.214 151.2 324.875 151.185C304.453 150.289 283.976 150.665 263.6 152.309C258.58 152.714 253.566 153.197 248.561 153.757C247.618 153.862 246.634 153.944 245.63 154.028C241.951 154.335 238.01 154.664 234.829 156.25C234.658 156.335 234.495 156.426 234.336 156.519C234.61 158.278 235.269 160 235.909 161.673C236.006 161.927 236.103 162.181 236.198 162.433C237.308 165.379 238.302 168.382 238.204 171.572C238.134 173.797 237.656 175.936 236.967 178.027C236.614 181.008 235.686 183.887 234.699 186.715C229.847 200.631 227.205 214.88 227.476 229.652C227.484 230.048 227.393 230.393 227.236 230.687L227.244 230.745C227.33 231.372 227.416 231.999 227.517 232.623C227.922 235.113 224.64 236.351 223.507 234.701C223.431 234.776 223.325 234.828 223.228 234.836C222.94 234.863 222.466 234.39 222.331 234.174C222.155 233.849 221.971 233.533 221.772 233.231C221.745 233.218 221.723 233.209 221.7 233.2C221.822 233.452 221.948 233.709 222.065 233.953C222.264 234.349 221.502 234.543 221.277 234.178C221.074 233.858 220.871 233.552 220.668 233.259C220.551 233.344 220.42 233.367 220.335 233.227C219.609 232.028 218.771 231 217.851 230.126C216.404 228.945 214.822 228.228 213.024 227.809C211.609 227.606 210.158 227.597 208.756 227.759C207.147 227.949 205.452 228.35 203.997 229.085C202.811 229.9 201.621 230.716 200.431 231.532C200.139 231.839 199.859 232.159 199.598 232.492C198.773 233.561 198.11 234.701 197.565 235.913C197.542 235.99 197.52 236.067 197.497 236.139C197.164 237.158 196.948 238.203 196.853 239.276C196.846 239.955 196.84 240.632 196.835 241.31C196.829 241.987 196.824 242.664 196.817 243.342C196.997 245.104 197.448 246.817 198.137 248.444C198.462 249.404 198.971 250.261 199.661 251.018C200.03 251.658 200.45 252.24 200.918 252.781C201.869 253.412 202.906 253.948 204.01 254.372L204.011 254.372C204.281 254.444 204.551 254.516 204.826 254.57C206.246 255.115 207.715 255.408 209.234 255.449C211.154 255.58 213.033 255.413 214.872 254.949C216.008 254.746 217.108 254.417 218.171 253.961C219.19 253.448 220.15 252.83 221.047 252.109C221.146 252.046 221.295 252.082 221.457 252.163C221.655 252.019 221.853 251.879 222.047 251.721C222.137 251.658 222.219 251.735 222.259 251.816L222.313 251.775C222.669 251.532 223.647 252.294 223.206 252.744C223.395 252.862 223.584 253.001 223.755 253.146C224.54 253.177 226.122 254.62 225.824 254.845C225.382 255.228 224.918 255.58 224.445 255.913C224.864 256.224 225.414 256.707 225.157 256.9C224.697 257.338 224.197 257.716 223.665 258.041C223.305 258.316 222.935 258.577 222.548 258.816C222.128 259.064 221.7 259.276 221.259 259.474C222.029 260.966 222.764 262.472 223.449 264.004C223.904 265.091 224.431 266.141 225.04 267.15C225.815 268.687 226.744 270.13 227.83 271.473C228.713 272.961 229.75 274.326 230.935 275.575C232.4 277.243 233.973 278.811 235.645 280.263C236.312 280.736 236.993 281.196 237.7 281.62C239.508 282.981 241.432 284.148 243.474 285.122C243.713 285.253 243.902 285.541 243.622 285.766C243.613 285.771 243.604 285.771 243.595 285.78C244.262 286.159 244.934 286.533 245.61 286.902L245.633 286.914C245.905 287.062 246.41 287.335 246.016 287.655C245.754 287.871 244.948 287.484 244.465 287.231C244.533 287.267 244.605 287.308 244.677 287.349C244.684 287.352 244.692 287.357 244.702 287.362C244.902 287.469 245.658 287.875 245.155 288.137C244.889 288.182 244.637 288.137 244.393 288.007C244.141 287.912 243.888 287.808 243.64 287.7C243.65 287.781 243.604 287.858 243.474 287.921C243.37 287.939 243.271 287.939 243.172 287.93C243.722 288.241 244.271 288.548 244.826 288.85C244.988 288.935 245.754 289.359 245.25 289.62C245.002 289.67 244.763 289.629 244.533 289.503C244.114 289.345 243.699 289.161 243.298 288.958C243.203 288.904 243.109 288.854 243.014 288.8C242.942 288.8 242.87 288.791 242.798 288.777C243.239 289.016 243.686 289.246 244.136 289.472C244.402 289.616 244.848 289.909 244.465 290.206C244.199 290.409 243.483 290.044 243.059 289.805C243.032 289.837 243 289.873 242.955 289.909C242.679 290.118 242.022 289.739 241.691 289.548C241.644 289.521 241.604 289.498 241.572 289.481C239.336 288.282 237.177 287.042 235.1 285.622C233.829 284.806 232.589 283.95 231.377 283.017C229.056 281.223 226.946 279.136 225.013 276.936C223.692 275.431 222.976 274.583 221.696 272.758C219.64 269.819 218.09 266.754 216.598 263.504C216.576 263.454 216.621 263.328 216.688 263.202C216.382 262.449 216.084 261.687 215.787 260.899C215.012 261.002 214.232 261.074 213.461 261.119C211.645 261.223 209.883 261.061 208.175 260.687C206.106 260.421 204.06 259.835 202.248 258.915C201.162 258.37 200.116 257.788 199.124 257.139C198.237 256.666 197.38 256.125 196.56 255.494C193.067 252.826 191.17 248.683 190.705 244.383C190.349 242.49 190.273 240.543 190.484 238.663C190.638 237.297 190.944 235.945 191.39 234.642C192.215 231.753 193.752 229.08 195.979 227.056C196.353 226.673 196.745 226.308 197.164 225.965C198.403 224.951 199.81 224.135 201.306 223.54C201.594 223.401 201.887 223.27 202.18 223.148L201.824 222.328C201.698 222.364 201.261 222.292 201.207 222.139C201.118 221.898 201.033 221.654 200.948 221.411C200.895 221.257 200.842 221.105 200.788 220.953C200.706 221.003 200.603 221.03 200.49 221.034V221.489C200.495 221.62 200.247 222.432 200.111 222.008C200.026 221.771 199.946 221.531 199.865 221.29C199.814 221.137 199.763 220.984 199.71 220.831C199.598 220.759 199.512 220.674 199.48 220.574C199.467 220.534 199.453 220.493 199.435 220.453C199.43 220.45 199.423 220.449 199.417 220.448C199.412 220.447 199.408 220.446 199.404 220.444V220.583C199.408 220.669 199.183 221.318 199.142 221.192C198.363 219.046 197.727 216.856 197.231 214.629C196.893 213.403 196.628 212.163 196.425 210.906C196.204 209.774 196.01 208.639 195.843 207.494L195.803 207.21C195.801 207.2 195.799 207.192 195.797 207.184C195.795 207.172 195.792 207.16 195.789 207.147L195.786 207.114C195.773 207.002 195.761 206.888 195.744 206.777C195.564 205.483 195.415 204.185 195.302 202.878C195.064 200.192 194.969 197.492 194.996 194.796C194.959 194.81 194.925 194.828 194.889 194.846C194.868 194.856 194.847 194.867 194.825 194.877C193.654 195.376 192.417 195.783 191.158 196.108C188.992 199.238 185.535 201.356 181.391 201.578C179.988 201.654 178.517 201.483 177.155 201.087C177.014 201.12 176.868 201.146 176.716 201.166C176.005 201.259 175.432 201.106 174.839 200.949C174.507 200.86 174.169 200.77 173.796 200.721C173.662 200.703 173.529 200.686 173.397 200.669C171.908 200.478 170.638 200.314 169.65 199.427C169.318 199.435 169.001 199.387 168.699 199.297C165.848 199.981 162.818 198.473 161.815 195.314C160.104 194.312 158.741 192.825 157.825 191.099C156.06 188.837 154.649 186.062 153.774 183.147C153.768 183.136 153.763 183.125 153.757 183.115C153.749 183.098 153.74 183.082 153.732 183.065C153.288 182.102 153.077 181.069 153.059 180.034C152.587 177.083 152.711 174.129 153.609 171.532C153.571 170.124 153.902 168.657 154.508 167.326C155.242 165.712 156.362 163.856 157.814 162.78C157.818 161.125 158.529 159.304 159.46 158.07C161.319 155.605 164.015 154.302 166.933 154.114C168.417 150.31 172.913 149.421 176.791 150.687C178.402 149.041 180.761 148.255 183.116 148.535C185.107 148.772 186.809 149.724 188.218 151.037C188.589 151.143 188.959 151.253 189.329 151.368C190.562 150.827 192.002 150.704 193.318 151.044C195.6 151.632 197.089 153.361 198.118 155.344C198.447 155.57 198.768 155.804 199.081 156.048C199.425 156.202 199.737 156.408 200.021 156.65C200.433 156.87 200.783 157.231 200.996 157.755C201.577 158.354 202.118 158.988 202.597 159.669C202.955 158.84 203.325 158.017 203.706 157.199C204.328 157.386 205.079 157.144 205.392 156.314L205.472 156.103C207.471 150.797 211.03 141.351 214.386 136.967C210.416 139.67 205.57 141.095 200.755 140.951C200.549 140.945 200.341 140.936 200.132 140.925C197.544 141.371 194.915 141.413 192.501 140.929C190.876 140.339 189.292 139.635 187.758 138.84C187.384 138.646 187.014 138.442 186.646 138.237C186.53 138.139 186.421 138.034 186.312 137.929C186.268 137.887 186.225 137.846 186.182 137.805C185.865 137.828 185.533 137.803 185.179 137.709C183.851 137.358 182.622 136.474 181.851 135.338C181.708 135.127 181.592 134.909 181.49 134.689C180.654 133.872 179.929 132.945 179.397 131.862C178.771 130.596 178.388 129.171 178.347 127.747C178.086 126.35 178.104 124.912 178.59 123.578C178.624 123.487 178.662 123.398 178.7 123.308C178.722 123.255 178.744 123.203 178.766 123.149C178.777 123.112 178.787 123.075 178.796 123.037C178.81 122.982 178.824 122.928 178.843 122.874C178.985 122.399 179.166 121.975 179.386 121.574C179.468 121.161 179.601 120.753 179.79 120.355C179.811 120.162 179.837 119.97 179.868 119.778C178.436 117.076 178.943 113.542 181.087 111.346C180.791 109.926 181.093 108.42 181.957 107.16C182.591 106.234 183.473 105.504 184.472 104.997C184.577 104.944 184.852 104.853 185.182 104.749C185.552 104.422 185.942 104.113 186.369 103.841C186.47 101.2 189.107 99.6759 191.389 98.3568C191.499 98.293 191.609 98.2298 191.717 98.1669C192.461 97.7353 193 97.1151 193.54 96.4945C194.106 95.843 194.673 95.191 195.477 94.7566C196.884 93.9971 198.612 93.8225 200.234 93.6586C200.593 93.6224 200.946 93.5867 201.29 93.5454C205.764 93.0063 210.528 92.5898 215.025 93.0771C217.521 93.3475 219.589 94.5533 220.444 96.5285C222.591 96.7822 224.505 98.3319 226.02 99.9258C227.91 101.915 229.519 104.033 230.074 106.646C230.444 106.846 230.78 107.09 231.083 107.366C231.072 109.204 230.832 111.046 230.324 112.781C230.474 113.818 230.161 114.808 229.633 115.706C229.714 116.556 229.656 117.393 229.478 118.228C230.506 120.051 229.544 122.806 228.104 124.614L228.093 125.634C228.179 125.589 228.262 125.536 228.34 125.47C232.481 121.946 236.695 120.975 241.247 119.926C243.875 119.32 246.616 118.688 249.521 117.524C256.677 116.142 263.981 115.263 271.311 114.97C271.27 114.964 271.229 114.959 271.188 114.953C271.132 114.946 271.077 114.939 271.021 114.93C267.327 114.325 263.779 112.805 260.728 110.623C259.92 110.418 259.155 110.053 258.469 109.443C257.803 108.851 257.342 108.168 257.077 107.435C256.956 107.305 256.837 107.175 256.719 107.043C254.429 106.48 252.684 104.498 252.976 101.893C251.526 100.176 250.992 98.056 251.483 95.8487C250.673 94.4798 250.602 92.7539 251.207 91.3083C249.933 89.7613 249.834 87.5653 250.833 85.815C249.921 84.5191 249.72 82.8018 250.845 81.267C251.375 80.5421 252.111 80.0851 252.912 79.8642C253.139 79.029 253.599 78.2532 254.322 77.6542C254.694 77.3463 255.083 77.1178 255.481 76.9474C255.631 76.0851 256.118 75.2675 257.055 74.6242C257.481 74.3326 257.916 74.1442 258.349 74.0396C258.758 73.0254 259.473 72.1361 260.479 71.5587C261.693 70.8623 263.105 70.7699 264.392 71.135C266.072 68.5955 269.759 67.611 272.315 69.4947C274.443 68.1776 277.12 68.4553 279.033 70.0568C281.346 68.6897 284.218 69.2414 286.032 71.1476C288.939 69.5592 292.775 70.7325 294.332 73.7421C297.265 73.4167 300.029 75.3369 300.811 78.1162C300.938 78.2192 301.063 78.3252 301.189 78.4311L301.222 78.4597C302.98 78.544 304.65 79.2327 305.634 80.8671C306.127 81.6834 306.354 82.6426 306.32 83.5825C307.371 84.1504 308.22 85.0821 308.583 86.2897C308.924 87.4219 308.796 88.5421 308.348 89.5179C309.811 91.0744 310.197 93.5003 309.161 95.4552C309.59 96.1908 309.813 97.0603 309.778 97.9641C309.726 99.3024 309.105 100.381 308.261 101.302C309.323 103.218 308.909 105.675 307.183 107.018C306.192 110.532 303.684 112.87 299.84 114.305C297.91 115.025 295.89 115.58 293.832 115.987C302.068 117.096 310.172 119.044 317.955 121.949C318.379 122.107 318.738 122.045 319.013 121.861C319.087 121.9 319.163 121.938 319.238 121.977C319.334 122.026 319.431 122.074 319.526 122.126C321.671 123.303 323.771 124.578 325.817 125.944C325.817 125.719 325.822 125.493 325.831 125.263C325.791 123.408 325.986 121.582 326.479 119.821C325.835 118.942 325.352 117.94 325.09 116.908C324.435 114.333 325.681 110.668 327.919 109.788C328.703 107.612 330.486 106.038 332.672 105.419C332.846 105.263 333.03 105.111 333.236 104.97C333.696 104.653 334.2 104.437 334.717 104.312C334.986 103.133 335.644 102.048 336.734 101.287C338.273 100.212 340.094 100.095 341.693 100.682C341.997 100.579 342.306 100.491 342.617 100.413C345.192 98.2219 349.204 98.3833 351.47 100.948C353.025 100.237 354.857 100.205 356.449 101.162C357.723 101.927 358.516 103.161 358.826 104.516C361.237 104.59 363.443 106.19 364.138 108.578C366.36 108.829 368.178 110.568 368.564 112.757C369.981 112.955 371.29 113.621 372.087 114.946C372.455 115.558 372.655 116.228 372.706 116.9C373.423 117.244 374.066 117.764 374.551 118.444C375.401 119.636 375.565 121.028 375.253 122.337C375.282 122.396 375.313 122.455 375.343 122.514C375.387 122.599 375.431 122.684 375.471 122.771C375.703 123.263 375.888 123.791 376.054 124.327C376.801 125.404 377.146 126.722 377.078 128.045C377.236 128.605 377.39 129.166 377.518 129.73C378.022 131.943 378.212 134.301 377.865 136.555C377.693 137.645 377.446 138.718 377.094 139.759C377.058 139.958 376.999 140.143 376.932 140.318C376.738 141.139 376.49 141.946 376.175 142.734C375.417 143.74 374.624 144.718 373.79 145.664C373.087 146.719 372.285 147.693 371.379 148.585C370.726 149.23 370.009 149.829 369.247 150.37C367.735 151.582 366.043 152.527 364.238 153.142C363.916 153.075 363.592 153.022 363.267 152.97C361.217 154.099 357.992 154.226 356.02 154.219C353.847 154.21 351.856 153.661 350.201 152.624C350.393 153.006 350.585 153.388 350.776 153.771C350.752 153.786 350.726 153.799 350.701 153.813C350.678 153.826 350.656 153.84 350.636 153.856C350.278 153.263 349.879 152.737 349.408 152.358C348.766 151.84 347.73 151.794 347.285 152.632C347.277 152.646 347.269 152.661 347.261 152.676C347.024 153.122 347.057 153.551 347.238 153.901C347.305 153.996 347.371 154.092 347.436 154.187C347.46 154.215 347.482 154.243 347.508 154.269L347.496 154.27C348.111 154.765 348.717 155.979 349.291 157.158C349.68 157.848 350.049 158.547 350.396 159.258C350.598 159.556 350.958 159.818 351.34 159.894C351.265 160.462 351.526 161.05 351.956 161.341C352.068 161.114 352.205 160.881 352.381 160.641C354.319 158.01 358.124 156.874 360.99 158.077C361.562 157.981 362.136 157.901 362.716 157.855C364.608 157.73 366.525 157.879 368.394 158.271C368.974 158.619 369.528 159.011 370.045 159.457C370.482 159.836 370.888 160.233 371.266 160.643C371.559 160.862 371.847 161.095 372.13 161.337C373.276 161.953 374.117 163.135 374.824 164.312C375.384 165.105 375.874 165.947 376.299 166.84C378.264 170.202 380.531 174.377 378.759 177.683ZM221.159 242.666C221.88 243.5 222.444 244.428 222.849 245.451C223.011 245.78 222.813 245.979 222.48 245.92C222.331 245.898 222.128 245.789 221.921 245.645C221.936 245.684 221.953 245.72 221.97 245.756C221.987 245.792 222.004 245.828 222.02 245.866C222.196 246.213 222.047 246.461 221.646 246.33L221.646 246.33C221.623 246.317 221.601 246.303 221.583 246.29C221.79 246.659 221.979 247.038 222.142 247.435C222.317 247.786 222.16 248.03 221.763 247.894C221.556 247.777 221.357 247.642 221.168 247.493C221.191 247.545 221.215 247.596 221.238 247.647C221.302 247.784 221.365 247.92 221.42 248.061C221.601 248.417 221.393 248.602 221.042 248.521C220.74 248.354 220.46 248.156 220.199 247.926C220.172 247.905 220.148 247.883 220.124 247.86C220.111 247.849 220.099 247.838 220.086 247.827C220.204 248.12 219.983 248.3 219.69 248.242C219.275 248.16 218.495 247.462 218.306 247.092C218.293 247.07 218.284 247.047 218.27 247.024C218.049 246.876 217.81 246.668 217.63 246.47C217.486 246.677 217.206 246.831 217.08 246.578C216.702 245.546 216.111 244.663 215.304 243.919C214.845 243.247 214.286 242.675 213.632 242.201C213.281 241.904 212.916 241.62 212.542 241.35C211.879 241.048 211.189 240.818 210.468 240.664C210.387 240.639 210.303 240.619 210.22 240.599C210.157 240.584 210.094 240.569 210.031 240.552L209.978 240.542C209.676 240.487 209.378 240.432 209.076 240.389C207.773 240.209 206.466 240.178 205.159 240.295C204.925 240.304 204.699 240.124 204.6 239.916C204.307 239.93 204.019 239.943 203.726 239.97C203.244 239.988 203.347 239.308 203.712 239.24C204.172 239.154 204.632 239.091 205.082 239.037C205.073 238.997 205.069 238.952 205.078 238.916C204.253 238.875 203.433 238.893 202.604 238.979C202.243 238.997 202.671 238.33 202.869 238.293C202.916 238.284 202.963 238.277 203.01 238.27C203.054 238.264 203.099 238.257 203.144 238.248C203.135 238.235 203.131 238.226 203.126 238.212H203.104C202.608 238.235 202.27 237.446 202.865 237.338C202.936 237.325 203.007 237.314 203.077 237.303C203.152 237.291 203.227 237.28 203.302 237.266C203.275 237.189 203.271 237.122 203.298 237.058C203.041 237.054 202.788 237.054 202.531 237.054C202.599 237.05 202.658 236.907 202.719 236.758C202.786 236.598 202.855 236.43 202.942 236.418C203.072 236.4 203.207 236.382 203.338 236.364C203.347 236.197 203.6 235.81 203.708 235.787C204.564 235.643 205.402 235.544 206.232 235.512C206.313 235.323 206.43 235.071 206.543 235.071C207.485 235.057 208.391 235.066 209.292 235.161C209.328 235.134 209.364 235.12 209.396 235.125C209.544 235.161 209.68 235.192 209.824 235.228C210.324 235.3 210.824 235.404 211.334 235.553C212.537 235.909 213.74 236.472 214.782 237.171C215.764 237.829 216.742 238.514 217.598 239.335C217.9 239.592 218.184 239.871 218.455 240.16C218.892 240.52 219.316 240.89 219.721 241.255C220.217 241.71 220.699 242.179 221.159 242.666Z" fill="black"/>
<path fill-rule="evenodd" clip-rule="evenodd" d="M316.413 273.226C313.093 274.188 309.529 274.274 306.145 273.281C303.075 272.38 299.923 270.397 297.664 267.774C295.657 265.443 294.357 262.611 294.408 259.587C294.414 259.242 294.538 258.954 294.728 258.73C294.932 258.489 295.218 258.324 295.523 258.252C295.838 258.178 296.171 258.205 296.454 258.333C296.71 258.45 296.93 258.648 297.067 258.937C297.414 259.393 297.76 259.842 298.107 260.279C300.899 263.727 303.602 266.303 307.8 267.227C310.078 267.728 312.353 267.506 314.44 266.741C316.674 265.922 318.694 264.482 320.276 262.639C320.992 261.806 321.836 261.467 322.662 261.461C323.597 261.454 324.522 261.889 325.219 262.584C325.904 263.267 326.362 264.196 326.404 265.167C326.44 266.019 326.162 266.909 325.423 267.704C322.987 270.32 319.829 272.237 316.413 273.226ZM316.311 230.048C319.714 232.117 324.9 236.941 321.239 242.071C316.929 246.593 310.724 241.408 307.666 239.063C304.831 237.245 301.646 241.92 304.276 244.042C326.371 260.402 335.338 230.589 318.032 227.615C316.127 227.288 315.419 229.408 316.311 230.048ZM284.474 220.944C283.38 220.245 282.093 220.004 280.667 220.653C279.552 221.16 277.598 222.85 276.237 225.071C275.307 226.591 274.647 228.373 274.784 230.23C274.816 230.661 274.657 230.979 274.406 231.214C274.207 231.4 273.92 231.536 273.584 231.579C273.298 231.615 272.978 231.583 272.718 231.501C272.223 231.347 271.961 231.026 271.862 230.764C270.91 228.234 271.32 225.411 272.387 222.864C273.828 219.427 276.444 216.548 278.158 215.62C281.091 214.031 284.551 213.958 287.488 215.577C289.989 216.954 291.552 219.179 293.107 221.446C293.437 221.928 293.765 222.406 294.105 222.876C294.784 223.818 294.852 224.752 294.589 225.553C294.297 226.441 293.554 227.19 292.624 227.581C291.765 227.944 290.768 227.995 289.886 227.622C289.14 227.308 288.456 226.695 288.023 225.655C287.295 223.904 286.08 221.972 284.474 220.944V220.944ZM340.03 224.841C339.28 225.231 338.694 225.349 337.863 225.1C337.404 224.962 336.949 224.697 336.594 224.341C336.241 223.989 335.987 223.551 335.888 223.064C335.645 221.864 334.989 220.741 334.053 220.009C333.253 219.383 332.244 219.051 331.125 219.238C329.916 219.44 328.766 220.215 327.973 221.128C327.708 221.434 327.5 221.781 327.291 222.126C326.901 222.771 326.521 223.37 325.982 223.844C325.778 224.024 325.471 224.149 325.173 224.149C325.051 224.149 324.929 224.129 324.811 224.093C323.609 222.886 323.378 221.97 323.416 221.062C323.457 220.11 323.833 219.145 324.439 218.246C325.862 216.135 328.565 214.405 330.388 214.013C332.885 213.476 335.365 214.121 337.353 215.516C339.399 216.951 340.915 219.179 341.388 221.69C341.501 222.295 341.453 222.948 341.223 223.514C340.998 224.067 340.606 224.541 340.03 224.841ZM289.981 198.444C288.482 199.904 286.708 200.13 284.914 200.331C283.917 200.444 283.121 200.535 282.338 200.712C280.185 201.198 278.057 201.93 276.116 202.984C274.087 204.086 271.875 205.415 270.284 207.118C269.906 207.523 269.549 207.948 269.192 208.374C268.866 208.762 268.552 209.136 268.222 209.497C267.842 209.911 267.482 210.345 267.123 210.778C266.901 211.144 266.857 211.234 266.813 211.327C266.746 211.468 266.667 211.625 266.578 211.794C266.456 212.025 266.313 212.278 266.163 212.507C265.913 212.926 265.779 213.042 265.663 213.094C265.471 213.179 265.289 213.221 265.113 213.198C264.947 213.177 264.791 213.098 264.637 212.967C263.867 212.317 263.64 211.25 263.664 210.118C263.699 208.399 264.333 206.496 264.917 205.327C266.276 202.609 268.16 199.783 270.425 197.755C273.011 195.439 275.839 193.686 279.088 192.478C281.107 191.728 283.444 191.038 285.644 191.125C287.227 191.188 288.738 191.659 289.986 192.834C290.753 193.556 291.121 194.582 291.121 195.607C291.121 196.653 290.738 197.706 289.981 198.444ZM343.077 211.815C342.982 211.972 342.85 212.079 342.704 212.144C342.55 212.212 342.378 212.231 342.213 212.203C342.049 212.176 341.893 212.101 341.769 211.988C341.651 211.879 341.56 211.734 341.52 211.557C340.525 207.187 338.593 203.935 334.47 201.839C332.441 200.807 330.109 200.152 327.901 199.629C327.259 199.477 326.581 199.379 325.898 199.279C323.758 198.967 321.603 198.609 320.208 196.879C319.368 195.837 319.015 194.504 319.214 193.286C319.402 192.138 320.073 191.086 321.291 190.455C324.326 188.886 328.097 190.426 331.161 191.738C331.388 191.835 331.611 191.93 331.829 192.022C334.826 193.287 337.559 194.957 339.806 197.345C341.588 199.24 343.24 202.04 343.905 204.921C344.458 207.318 344.328 209.765 343.077 211.815Z" fill="black"/>
<path fill-rule="evenodd" clip-rule="evenodd" d="M354.314 234.083C351.279 238.16 345.654 239.458 340.465 239.01C329.273 237.933 325.751 225.221 325.384 215.341C332.889 217.452 324.749 202.499 350.403 200.855C359.446 200.101 356.953 205.563 360.949 209.554C360.867 217.93 359.473 227.031 354.314 234.083M301.009 224.458C294.401 255.404 258.22 248.043 254.419 220.148C257.928 217.67 257.004 211.553 261.364 209.337C268.274 204.921 276.913 205.11 284.76 205.214C294.79 205.903 297.649 210.059 302.801 214.592C302.553 217.62 301.838 221.209 301.009 224.458M368.647 195.73C368.276 195.668 367.904 195.61 367.533 195.555C367.243 195.391 366.903 195.264 366.507 195.188C365.603 194.959 364.706 194.804 363.81 194.721C350.951 191.826 321.201 195.936 319.973 206.911C315.878 208.278 312.335 207.054 307.588 207.175C303.976 192.073 241.516 194.204 238.512 203.31C238.5 203.306 238.489 203.304 238.477 203.3C235.591 202.407 231.336 202.622 228.032 202.481C220.978 202.333 213.916 202.962 207.015 204.45C194.091 206.504 176.452 208.908 185.441 225.049C185.443 225.052 185.444 225.055 185.446 225.057L185.448 225.056C186.997 226.644 189.626 225.365 189.723 223.216C186.701 215.569 193.527 214.651 198.778 212.453C211.846 207.758 225.15 207.108 238.664 208.56C239.681 209.757 241.224 210.801 242.855 211.347C251.891 212.847 247.129 219.551 252.84 220.526C251.791 243.894 280.159 256.649 296.596 241.288C303.158 234.871 304.723 225.365 306.244 216.797C307.049 216.616 307.56 216.176 307.859 215.594C309.794 213.662 311.01 211.878 314.836 211.347C318.662 210.817 321.607 211.881 322.006 212.207C322.106 212.41 322.214 212.613 322.339 212.815C322.514 213.118 322.752 213.359 323.022 213.549C319.244 236.818 337.307 251.534 355.542 239.466C363.465 232.012 365.14 220.599 365.471 210.413C366.545 209.765 367.225 208.509 366.853 206.93C366.34 204.752 367.542 202.867 369.456 201.921C371.942 200.692 371.502 196.203 368.647 195.73" fill="black"/>
</svg>
